<svg width="481" height="461" viewBox="0 0 481 461" fill="none" xmlns="http://www.w3.org/2000/svg">
<path d="M250.829 336.82H207.983L138.953 338.01L113.959 343.961L106.818 351.102L97.2969 363.003L103.248 385.617L116.34 401.089L124.671 407.04L138.953 414.181L161.566 416.561L173.468 420.132L199.652 433.224L222.265 442.745L246.069 448.696L272.253 451.076H297.246H329.381C329.381 451.076 355.565 436.794 357.945 435.604C360.326 434.414 397.221 428.463 397.221 428.463L417.454 411.801L438.877 389.187L443.638 366.574L438.877 336.82L434.116 326.108L372.227 323.728L344.853 313.016H329.381L294.866 321.347L271.062 327.298L250.829 336.82Z" fill="#FCBF95"/>
<path d="M421.024 202.33C265.112 189.238 150.855 217.802 94.9165 279.691L108.008 339.2C232.977 347.531 310.338 311.826 330.571 310.636C340.092 309.446 388.89 317.777 437.687 326.108C449.589 282.071 435.307 233.274 421.024 202.33Z" fill="#283D5B"/>
<path d="M424.595 204.71L465.061 196.379L430.546 184.477C449.589 171.385 441.257 138.06 440.067 109.496L400.791 159.483C393.65 114.257 391.27 70.2204 340.093 22.6134C334.142 40.466 336.522 64.2695 336.522 82.1221C288.915 45.2267 246.069 19.0428 192.511 8.33127L205.603 49.9874L141.333 47.607L153.235 67.84L50.8801 79.7418L102.058 119.018C66.3523 133.3 38.9783 154.723 17.5552 183.287L66.3523 173.766L38.9783 242.796L69.9229 236.845C61.5916 258.268 59.2113 279.691 68.7327 301.114C68.7327 301.114 84.205 284.452 87.7755 286.832C91.346 288.022 93.7264 293.973 93.7264 293.973L123.481 265.409L131.812 257.078L137.763 266.599L171.088 232.084L186.56 221.373L209.173 215.422L236.547 210.661L277.013 204.71L311.528 198.759C311.528 198.759 351.994 198.759 353.184 198.759C354.375 198.759 396.031 207.09 404.362 207.09C413.883 205.9 424.595 204.71 424.595 204.71Z" fill="#BCBCBC"/>
<path d="M65.1621 310.636C63.9719 310.636 63.9719 310.636 62.7817 310.636C60.4014 309.445 59.2112 308.255 59.2112 305.875C55.6407 285.642 55.6407 265.409 60.4014 246.366L33.0274 255.888C30.647 257.078 28.2667 255.888 27.0765 254.697C25.8863 253.507 24.6961 251.127 25.8863 248.747L50.88 186.857L6.84351 198.759C4.46316 199.949 2.08281 198.759 0.892631 196.379C-0.297544 193.998 -0.297544 191.618 0.892631 189.238C22.3158 157.103 55.6407 135.68 86.5852 117.827C77.0638 114.257 68.7326 108.306 60.4014 102.355C54.4505 97.5943 49.6898 92.8336 44.9291 88.0729C41.3586 84.5024 37.788 79.7417 40.1684 74.981C42.5487 70.2203 48.4996 69.0301 53.2603 69.0301L74.6835 67.84C84.2049 66.6498 94.9165 66.6498 104.438 65.4596C110.389 64.2694 116.34 64.2694 122.29 64.2694C124.671 64.2694 128.241 64.2694 130.622 63.0793C133.002 61.8891 136.573 60.6989 138.953 60.6989L127.051 47.607C125.861 45.2266 124.671 42.8463 127.051 40.4659C128.241 38.0856 131.812 36.8954 134.192 38.0856C154.425 45.2266 177.039 47.607 199.652 46.4168L178.229 8.33123C177.039 5.95088 177.039 3.57053 178.229 2.38035C179.419 3.36965e-06 181.799 0 184.18 0C240.118 7.14105 287.725 39.2758 330.571 70.2203L331.761 16.6624C331.761 14.2821 332.951 11.9017 335.332 10.7116C337.712 9.5214 340.092 10.7116 341.283 11.9017C378.178 46.4168 401.982 95.214 405.552 145.201C417.454 133.3 426.975 117.827 432.926 101.165C434.116 98.7845 436.497 97.5943 438.877 97.5943C441.257 97.5943 443.638 98.7845 444.828 102.355C451.969 127.349 449.589 154.723 438.877 178.526C453.159 179.716 466.251 184.477 478.153 191.618C480.533 192.808 481.723 196.379 480.533 198.759C479.343 201.14 476.963 203.52 474.582 202.33C466.251 202.33 457.92 204.71 448.398 208.281C440.067 211.851 431.736 214.231 422.215 215.422C413.883 215.422 405.552 214.231 397.221 211.851C394.841 211.851 393.65 210.661 391.27 210.661C368.657 205.9 343.663 207.09 319.859 207.09C281.774 208.281 243.688 209.471 206.793 221.372C190.13 226.133 149.664 242.796 142.523 277.311C141.333 279.691 140.143 282.071 136.573 282.071C134.192 282.071 131.812 279.691 130.622 277.311L128.241 267.789L96.1066 308.255C94.9164 310.636 92.5361 310.636 90.1557 310.636C87.7754 310.636 86.5852 308.255 85.395 305.875L84.2049 297.544L66.3522 310.636C67.5424 310.636 66.3522 310.636 65.1621 310.636ZM68.7326 230.894C69.9228 230.894 72.3031 230.894 72.3031 232.084C73.4933 233.274 74.6835 235.655 73.4933 238.035C67.5424 255.888 66.3522 274.93 68.7326 293.973L86.5852 280.881C87.7754 279.691 90.1557 279.691 92.5361 279.691C94.9164 280.881 96.1066 282.071 96.1066 284.452L97.2968 289.212L129.432 248.747C130.622 246.366 133.002 246.366 135.382 246.366C137.763 246.366 138.953 248.747 140.143 251.127V253.507C156.806 226.133 190.13 213.041 205.603 208.281C243.688 196.379 282.964 195.189 321.05 193.998C344.853 192.808 369.847 192.808 394.841 197.569C397.221 197.569 399.601 198.759 400.791 198.759C407.932 199.949 415.073 202.33 422.215 202.33C429.356 202.33 436.497 198.759 444.828 196.379C448.398 195.189 450.779 193.998 454.349 192.808C446.018 190.428 437.687 189.238 428.165 189.238C425.785 189.238 423.405 188.048 423.405 185.667C422.215 183.287 422.215 180.907 423.405 179.716C434.116 163.054 438.877 142.821 436.497 122.588C428.165 138.06 417.454 151.152 403.172 161.864C401.982 163.054 398.411 163.054 397.221 163.054C394.841 161.864 393.65 159.483 393.65 157.103C393.65 109.496 374.608 63.0793 342.473 28.5642L341.283 78.5515C341.283 80.9319 340.092 83.3122 337.712 83.3122C335.332 84.5024 332.951 84.5024 331.761 83.3122C291.295 53.5579 244.878 20.233 192.511 8.33123L211.554 44.0365C212.744 45.2266 212.744 47.607 211.554 49.9873C210.363 51.1775 209.173 52.3677 206.793 53.5579C186.56 55.9382 166.327 54.748 147.284 49.9873L156.806 61.8891C159.186 64.2694 159.186 67.84 155.615 70.2203C153.235 72.6007 150.855 71.4105 148.474 71.4105C143.714 71.4105 138.953 72.6007 133.002 73.7908C128.241 74.981 124.671 74.981 119.91 74.981C115.149 74.981 110.389 74.981 104.438 76.1712C94.9165 77.3614 84.2049 77.3614 74.6835 78.5515L53.2603 79.7417C56.8308 84.5024 61.5915 88.0729 66.3522 92.8336C77.0638 101.165 88.9656 107.116 100.867 110.686C103.248 111.876 104.438 113.067 105.628 115.447C105.628 117.827 104.438 120.208 103.248 121.398C74.6835 138.06 43.7389 155.913 21.1256 182.097L59.2112 170.195C61.5915 170.195 63.9719 170.195 65.1621 171.385C66.3522 172.575 67.5424 174.956 66.3522 177.336L41.3586 239.225L66.3522 230.894C67.5424 230.894 67.5424 230.894 68.7326 230.894Z" fill="#010101"/>
<path d="M106.818 342.77C104.438 342.77 103.248 341.58 102.058 340.39L97.2969 334.439C96.1067 333.249 96.1067 332.059 96.1067 330.869V304.685C96.1067 301.114 98.487 298.734 102.058 298.734C105.628 298.734 108.008 301.114 108.008 304.685V328.488L110.389 332.059C112.769 334.439 111.579 338.01 109.199 340.39C109.199 341.58 108.008 342.77 106.818 342.77Z" fill="#010101"/>
<path d="M177.039 342.77H140.143C136.573 342.77 134.192 340.39 134.192 336.82C134.192 333.249 136.573 330.869 140.143 330.869H217.505C222.265 329.678 228.216 329.678 234.167 328.488C254.4 326.108 275.823 322.537 294.866 315.396C302.007 311.826 316.289 307.065 319.86 305.875C328.191 304.685 336.522 303.495 346.043 304.685C350.804 305.875 355.565 308.255 359.135 309.445C363.896 311.826 367.467 313.016 372.227 314.206C376.988 314.206 381.749 314.206 386.509 314.206C390.08 314.206 392.46 314.206 396.031 314.206C416.264 315.396 426.975 316.587 432.926 317.777C432.926 316.587 432.926 316.587 434.116 315.396C437.687 305.875 440.067 296.354 438.877 286.832C437.687 282.071 437.687 277.311 437.687 271.36C436.497 260.648 435.306 249.937 431.736 240.415C431.736 239.225 418.644 210.661 418.644 210.661L429.356 205.9L442.448 235.655C446.018 245.176 447.208 258.268 448.398 268.98C448.398 273.74 449.589 279.691 449.589 283.262C451.969 295.163 448.398 307.065 444.828 317.777C443.638 322.537 442.448 324.918 442.448 327.298C441.257 330.869 437.687 332.059 435.307 330.869C434.116 330.869 434.116 329.678 432.926 329.678C426.975 328.488 405.552 327.298 396.031 326.108C392.46 326.108 390.08 326.108 386.509 326.108C381.749 326.108 376.988 326.108 372.227 326.108C365.086 326.108 359.135 322.537 354.375 320.157C350.804 318.967 347.234 316.587 343.663 315.396C336.522 314.206 329.381 315.396 322.24 316.587C319.86 316.587 310.338 320.157 299.627 324.918C279.394 333.249 256.78 335.629 235.357 339.2C229.406 340.39 223.455 340.39 218.695 341.58L177.039 342.77Z" fill="#010101"/>
<path d="M291.295 460.598C287.725 460.598 282.964 460.598 279.394 460.598C243.688 458.217 213.934 443.935 181.799 429.653L173.468 426.083C172.278 424.893 171.088 424.893 168.707 424.893C167.517 424.893 165.137 424.893 162.756 424.893C130.622 423.702 108.008 412.991 97.2968 392.758C93.7263 385.617 88.9656 373.715 90.1558 363.003C91.3459 345.151 105.628 333.249 127.051 333.249H141.333C144.904 333.249 147.284 335.629 147.284 339.2C147.284 342.77 144.904 345.151 141.333 345.151H127.051C119.91 345.151 103.248 347.531 100.867 364.194C100.867 371.335 102.058 378.476 106.818 387.997C115.149 404.66 134.192 412.991 161.566 414.181C165.137 414.181 167.517 414.181 171.088 415.371C173.468 415.371 175.848 416.561 177.039 417.751L185.37 421.322C216.314 435.604 244.878 449.886 278.203 451.076C292.485 452.267 306.768 451.076 319.86 448.696C330.571 446.316 340.092 442.745 350.804 437.984L359.135 434.414C365.086 432.034 369.847 430.843 375.798 428.463C390.08 423.702 404.362 418.942 417.454 410.61C431.736 402.279 443.638 378.476 441.257 360.623C440.067 354.672 437.687 349.911 434.116 343.961L431.736 340.39C431.736 340.39 431.736 339.2 430.546 339.2V327.298C429.356 323.728 431.736 321.347 435.306 320.157C438.877 318.967 441.257 321.347 442.447 324.918L444.828 334.439L447.208 338.01C450.779 343.961 455.539 351.102 456.73 359.433C459.11 380.856 446.018 410.61 426.975 421.322C413.883 429.653 398.411 434.414 382.939 439.175C376.988 441.555 372.227 442.745 366.276 445.125L357.945 448.696C347.234 452.267 336.522 457.027 324.62 459.408C313.909 459.408 303.197 460.598 291.295 460.598Z" fill="#010101"/>
<path d="M330.571 355.862C329.381 355.862 329.381 355.862 328.191 355.862C319.86 354.672 315.099 347.531 312.718 342.77C311.528 341.58 311.528 340.39 310.338 339.2C307.958 336.82 309.148 333.249 311.528 330.869C313.909 328.488 317.479 329.678 319.86 332.059C321.05 333.249 321.05 334.439 322.24 335.629C324.62 339.2 327.001 342.77 328.191 342.77C335.332 342.77 336.522 341.58 340.093 335.629L342.473 332.059C344.853 329.678 348.424 328.488 350.804 330.869C353.184 333.249 354.375 336.82 351.994 339.2L349.614 342.77C347.234 349.911 342.473 355.862 330.571 355.862Z" fill="#010101"/>
<path d="M182.989 160.674C181.799 160.674 181.799 160.674 180.609 160.674C177.039 159.483 174.658 158.293 171.088 157.103C162.756 153.533 155.615 151.152 147.284 148.772C144.904 148.772 142.524 147.582 140.143 146.392C135.382 145.201 129.432 142.821 127.051 144.011C123.481 145.201 121.1 142.821 119.91 139.25C118.72 135.68 121.1 133.3 124.671 132.109C129.432 130.919 133.002 129.729 137.763 128.539C147.284 126.159 156.806 123.778 166.327 123.778C175.848 123.778 185.37 126.159 193.701 127.349C197.272 128.539 199.652 128.539 203.222 129.729C206.793 130.919 207.983 133.3 207.983 136.87C206.793 140.441 204.413 141.631 200.842 141.631C197.272 140.441 194.891 140.441 191.321 139.25C182.989 136.87 174.658 135.68 166.327 135.68C161.566 135.68 156.806 136.87 152.045 136.87C160.376 139.25 167.517 141.631 174.658 145.201C178.229 146.392 180.609 147.582 184.18 148.772C187.75 149.962 188.94 153.533 187.75 155.913C187.75 159.483 185.37 160.674 182.989 160.674Z" fill="#010101"/>
<path d="M338.902 179.716L335.332 164.244L331.761 171.385C330.571 173.766 329.381 174.956 327.001 174.956C324.62 174.956 322.24 173.766 322.24 172.575C315.099 161.864 307.958 151.152 299.627 139.25C300.817 145.201 303.197 152.342 304.387 158.293C305.577 161.864 303.197 164.244 299.627 165.434C296.056 166.624 293.676 164.244 292.486 160.674C287.725 142.821 281.774 126.159 275.823 110.686C274.633 108.306 275.823 104.735 278.203 103.545C280.584 102.355 284.154 102.355 285.345 104.735C299.627 122.588 312.719 140.441 323.43 157.103L329.381 145.201C330.571 142.821 332.952 141.631 335.332 141.631C337.712 141.631 340.093 144.011 340.093 146.392L348.424 176.146C349.614 179.716 347.234 182.097 344.853 183.287C346.043 183.287 340.093 183.287 338.902 179.716Z" fill="#010101"/>
<path d="M147.284 399.899C146.094 399.899 143.714 398.709 142.524 397.518C140.143 395.138 140.143 392.758 138.953 390.377C137.763 385.617 138.953 382.046 140.143 377.285C140.143 376.095 141.333 374.905 141.333 373.715C142.524 368.954 137.763 361.813 133.002 360.623C129.432 359.433 124.671 360.623 121.1 364.194C118.72 366.574 115.149 366.574 112.769 364.194C110.389 361.813 110.389 358.243 112.769 355.862C119.91 348.721 129.432 346.341 137.763 349.911C147.284 353.482 155.615 365.384 153.235 377.285C153.235 378.476 152.045 379.666 152.045 382.046C150.855 384.427 150.855 386.807 150.855 389.187H153.235C156.806 389.187 159.186 391.568 159.186 395.138C159.186 397.518 157.996 398.709 156.806 399.899C155.615 401.089 153.235 401.089 150.855 401.089C152.045 401.089 148.474 399.899 147.284 399.899Z" fill="#010101"/>
</svg>
